<svg width="512" height="512" viewBox="0 0 512 512" fill="none" xmlns="http://www.w3.org/2000/svg">
  <!-- 背景圆形 -->
  <circle cx="256" cy="256" r="240" fill="url(#gradient)" stroke="url(#borderGradient)" stroke-width="8"/>
  
  <!-- 搜索图标主体 -->
  <circle cx="200" cy="200" r="80" fill="none" stroke="white" stroke-width="16" stroke-linecap="round"/>
  
  <!-- 搜索放大镜手柄 -->}
  <line x1="280" y1="280" x2="340" y2="340" stroke="white" stroke-width="16" stroke-linecap="round"/>
  
  <!-- 云盘图标装饰 -->
  <g transform="translate(320, 120)">
    <!-- 云朵形状 -->}
    <path d="M40 60C40 48 48 40 60 40C64 32 72 28 80 28C92 28 100 36 100 48C108 48 116 56 116 64C116 72 108 80 100 80L60 80C48 80 40 72 40 60Z" fill="white" opacity="0.9"/>
    <!-- 下载箭头 -->}
    <path d="M80 50L80 70M72 62L80 70L88 62" stroke="#3B82F6" stroke-width="3" stroke-linecap="round" stroke-linejoin="round"/>
  </g>
  
  <!-- 网络连接点装饰 -->
  <g opacity="0.8">
    <circle cx="120" cy="120" r="6" fill="white"/>
    <circle cx="380" cy="380" r="6" fill="white"/>
    <circle cx="400" cy="200" r="6" fill="white"/>
    <line x1="120" y1="120" x2="200" y2="140" stroke="white" stroke-width="2" opacity="0.6"/>
    <line x1="380" y1="380" x2="320" y2="320" stroke="white" stroke-width="2" opacity="0.6"/>
  </g>

  <!-- 渐变定义 -->
  <defs>
    <linearGradient id="gradient" x1="0%" y1="0%" x2="100%" y2="100%">
      <stop offset="0%" style="stop-color:#3B82F6"/>
      <stop offset="50%" style="stop-color:#8B5CF6"/>
      <stop offset="100%" style="stop-color:#4F46E5"/>
    </linearGradient>
    <linearGradient id="borderGradient" x1="0%" y1="0%" x2="100%" y2="100%">
      <stop offset="0%" style="stop-color:#60A5FA"/>
      <stop offset="100%" style="stop-color:#A78BFA"/>
    </linearGradient>
  </defs>
</svg>
